<svg width="32" height="32" xmlns="http://www.w3.org/2000/svg">

 <g>
  <title>background</title>
  <rect fill="none" id="canvas_background" height="402" width="582" y="-1" x="-1"/>
 </g>
 <g>
  <title>Layer 1</title>
  <path id="svg_3" fill="#ffffff" d="m16.333,13.759l0,0c-0.006,-0.001 -0.012,-0.001 -0.018,-0.001c-0.006,0 -0.012,0 -0.018,0l0,0.001c-1.21,0.03 -2.183,1.02 -2.183,2.237s0.972,2.208 2.183,2.237l0,0.002c0.006,0 0.012,-0.002 0.018,-0.002c0.005,0 0.011,0.002 0.018,0.002l0,-0.002c1.219,-0.029 2.183,-1.02 2.183,-2.237s-0.964,-2.207 -2.183,-2.237z"/>
  <path id="svg_4" fill="#ffffff" d="m29.586,14.186c-2.76,-2.246 -7.407,-5.51 -13.253,-5.621l0,0c-0.006,0 -0.012,0 -0.018,0c-0.006,0 -0.012,0 -0.018,0l0,0c-5.844,0.111 -10.496,3.375 -13.256,5.621c-0.132,0.107 -1.036,0.8 -1.051,1.686c-0.011,0.624 0.28,1.085 0.699,1.471c2.255,2.181 7.176,6.059 13.609,6.087l0,0.002c0.006,0 0.012,0 0.018,0c0.005,0 0.011,0 0.018,0l0,-0.002c6.445,-0.028 11.351,-3.906 13.607,-6.087c0.419,-0.386 0.709,-0.847 0.697,-1.471c-0.017,-0.886 -0.919,-1.579 -1.052,-1.686zm-13.271,7.566c-3.162,-0.021 -5.719,-2.59 -5.719,-5.756s2.557,-5.735 5.719,-5.755c3.17,0.02 5.718,2.589 5.718,5.755s-2.548,5.734 -5.718,5.756z"/>
 </g>
</svg>